{
  "accessors": [
    {
      "bufferView": 2,
      "componentType": 5126,
      "count": 1611,
      "max": [
        0.20356300473213196,
        0.5,
        -0.08886086195707321
      ],
      "min": [
        -0.36634600162506104,
        0.46029600501060486,
        -0.5
      ],
      "type": "VEC3"
    },
    {
      "bufferView": 2,
      "byteOffset": 19332,
      "componentType": 5126,
      "count": 1611,
      "max": [
        0.9940158128738403,
        0.9999991059303284,
        0.999963104724884
      ],
      "min": [
        -0.990208089351654,
        -0.9999991059303284,
        -0.9999626278877258
      ],
      "type": "VEC3"
    },
    {
      "bufferView": 1,
      "componentType": 5126,
      "count": 1611,
      "max": [
        0.9999989867210388,
        0.9881700277328491
      ],
      "min": [
        0.0,
        0.0
      ],
      "type": "VEC2"
    },
    {
      "bufferView": 0,
      "componentType": 5125,
      "count": 5094,
      "type": "SCALAR"
    },
    {
      "bufferView": 2,
      "byteOffset": 38664,
      "componentType": 5126,
      "count": 16930,
      "max": [
        0.5,
        0.4760429859161377,
        0.5
      ],
      "min": [
        -0.5,
        -0.236537903547287,
        -0.20542499423027039
      ],
      "type": "VEC3"
    },
    {
      "bufferView": 2,
      "byteOffset": 241824,
      "componentType": 5126,
      "count": 16930,
      "max": [
        0.9999967813491821,
        1.0,
        1.0
      ],
      "min": [
        -0.9999957084655762,
        -1.0,
        -1.0
      ],
      "type": "VEC3"
    },
    {
      "bufferView": 1,
      "byteOffset": 12888,
      "componentType": 5126,
      "count": 16930,
      "max": [
        0.9999989867210388,
        0.9984580278396606
      ],
      "min": [
        0.0,
        0.0
      ],
      "type": "VEC2"
    },
    {
      "bufferView": 0,
      "byteOffset": 20376,
      "componentType": 5125,
      "count": 89220,
      "type": "SCALAR"
    },
    {
      "bufferView": 2,
      "byteOffset": 444984,
      "componentType": 5126,
      "count": 825,
      "max": [
        0.4252159893512726,
        -0.11155100166797638,
        0.021782269701361656
      ],
      "min": [
        -0.4192950129508972,
        -0.5,
        -0.3044860064983368
      ],
      "type": "VEC3"
    },
    {
      "bufferView": 2,
      "byteOffset": 454884,
      "componentType": 5126,
      "count": 825,
      "max": [
        0.9994817972183228,
        0.9888350963592529,
        0.9378386735916138
      ],
      "min": [
        -0.9994601607322693,
        -0.9913331270217896,
        -0.9964116811752319
      ],
      "type": "VEC3"
    },
    {
      "bufferView": 1,
      "byteOffset": 148328,
      "componentType": 5126,
      "count": 825,
      "max": [
        0.9999989867210388,
        0.9995629787445068
      ],
      "min": [
        0.0,
        0.0
      ],
      "type": "VEC2"
    },
    {
      "bufferView": 0,
      "byteOffset": 377256,
      "componentType": 5125,
      "count": 4272,
      "type": "SCALAR"
    },
    {
      "bufferView": 2,
      "byteOffset": 464784,
      "componentType": 5126,
      "count": 2871,
      "max": [
        0.40820199251174927,
        0.47460898756980896,
        -0.08483248203992844
      ],
      "min": [
        -0.2297929972410202,
        -0.37296900153160095,
        -0.3449839949607849
      ],
      "type": "VEC3"
    },
    {
      "bufferView": 2,
      "byteOffset": 499236,
      "componentType": 5126,
      "count": 2871,
      "max": [
        0.9999719262123108,
        0.9999949932098389,
        0.9998987913131714
      ],
      "min": [
        -0.9999071955680847,
        -0.9999989867210388,
        -0.999888002872467
      ],
      "type": "VEC3"
    },
    {
      "bufferView": 1,
      "byteOffset": 154928,
      "componentType": 5126,
      "count": 2871,
      "max": [
        0.9812279939651489,
        0.9999989867210388
      ],
      "min": [
        0.0,
        0.0
      ],
      "type": "VEC2"
    },
    {
      "bufferView": 0,
      "byteOffset": 394344,
      "componentType": 5125,
      "count": 11730,
      "type": "SCALAR"
    }
  ],
  "asset": {
    "extras": {
      "author": "𝕽𝖊𝖆𝖑 𝕾𝖑𝖎𝖒 𝕾𝖍𝖆𝖉𝖞 (https://sketchfab.com/real_slimshady)",
      "license": "CC-BY-4.0 (http://creativecommons.org/licenses/by/4.0/)",
      "source": "https://sketchfab.com/3d-models/cyberpunk-baseball-cap-3d-model-b847ef5ec53f424eac6ea0d55746bf4e",
      "title": "Cyberpunk Baseball Cap 3D Model"
    },
    "generator": "Sketchfab-15.87.0",
    "version": "2.0"
  },
  "bufferViews": [
    {
      "buffer": 0,
      "byteLength": 441264,
      "name": "floatBufferViews",
      "target": 34963
    },
    {
      "buffer": 0,
      "byteLength": 177896,
      "byteOffset": 441264,
      "byteStride": 8,
      "name": "floatBufferViews",
      "target": 34962
    },
    {
      "buffer": 0,
      "byteLength": 533688,
      "byteOffset": 619160,
      "byteStride": 12,
      "name": "floatBufferViews",
      "target": 34962
    }
  ],
  "buffers": [
    {
      "byteLength": 1152848,
      "uri": "scene.bin"
    }
  ],
  "images": [
    {
      "uri": "textures/Material4-material_baseColor.png"
    },
    {
      "uri": "textures/Material0-material_baseColor.png"
    },
    {
      "uri": "textures/Material1-material_baseColor.png"
    },
    {
      "uri": "textures/Material3-material_baseColor.png"
    }
  ],
  "materials": [
    {
      "doubleSided": true,
      "name": "Material4-material",
      "pbrMetallicRoughness": {
        "baseColorTexture": {
          "index": 0
        },
        "metallicFactor": 0.31955017409975,
        "roughnessFactor": 0.4
      }
    },
    {
      "doubleSided": true,
      "emissiveFactor": [
        1.0,
        1.0,
        1.0
      ],
      "emissiveTexture": {
        "index": 1
      },
      "name": "Material0-material",
      "pbrMetallicRoughness": {
        "baseColorTexture": {
          "index": 1
        },
        "metallicFactor": 0.0,
        "roughnessFactor": 0.7540124797723166
      }
    },
    {
      "doubleSided": true,
      "emissiveFactor": [
        1.0,
        1.0,
        1.0
      ],
      "emissiveTexture": {
        "index": 2
      },
      "name": "Material1-material",
      "pbrMetallicRoughness": {
        "baseColorTexture": {
          "index": 2
        },
        "metallicFactor": 0.0,
        "roughnessFactor": 0.754
      }
    },
    {
      "doubleSided": true,
      "emissiveFactor": [
        1.0,
        1.0,
        1.0
      ],
      "emissiveTexture": {
        "index": 3
      },
      "name": "Material3-material",
      "pbrMetallicRoughness": {
        "baseColorTexture": {
          "index": 3
        },
        "metallicFactor": 0.0,
        "roughnessFactor": 0.6
      }
    }
  ],
  "meshes": [
    {
      "name": "Material3-material-material",
      "primitives": [
        {
          "attributes": {
            "NORMAL": 1,
            "POSITION": 0,
            "TEXCOORD_0": 2
          },
          "indices": 3,
          "material": 3,
          "mode": 4
        }
      ]
    },
    {
      "name": "Material1-material-material",
      "primitives": [
        {
          "attributes": {
            "NORMAL": 5,
            "POSITION": 4,
            "TEXCOORD_0": 6
          },
          "indices": 7,
          "material": 2,
          "mode": 4
        }
      ]
    },
    {
      "name": "Material0-material-material",
      "primitives": [
        {
          "attributes": {
            "NORMAL": 9,
            "POSITION": 8,
            "TEXCOORD_0": 10
          },
          "indices": 11,
          "material": 1,
          "mode": 4
        }
      ]
    },
    {
      "name": "Material4-material-material",
      "primitives": [
        {
          "attributes": {
            "NORMAL": 13,
            "POSITION": 12,
            "TEXCOORD_0": 14
          },
          "indices": 15,
          "material": 0,
          "mode": 4
        }
      ]
    }
  ],
  "nodes": [
    {
      "children": [
        1
      ],
      "matrix": [
        1.0,
        0.0,
        0.0,
        0.0,
        0.0,
        2.220446049250313e-16,
        -1.0,
        0.0,
        0.0,
        1.0,
        2.220446049250313e-16,
        0.0,
        0.0,
        0.0,
        0.0,
        1.0
      ],
      "name": "Sketchfab_model"
    },
    {
      "children": [
        2,
        4,
        6,
        8
      ],
      "name": "Collada visual scene group"
    },
    {
      "children": [
        3
      ],
      "matrix": [
        -0.001025578,
        0.2101426,
        0.002052434,
        0.0,
        -0.4054399,
        -0.001732746,
        -0.02518308,
        0.0,
        -0.01306808,
        -0.002120072,
        0.2105379,
        0.0,
        0.05637629,
        0.000275494,
        0.1639577,
        1.0
      ],
      "name": "prim0.004"
    },
    {
      "mesh": 0,
      "name": "Material3-material-material"
    },
    {
      "children": [
        5
      ],
      "matrix": [
        -0.001025578,
        0.2101426,
        0.002052434,
        0.0,
        -0.4054399,
        -0.001732746,
        -0.02518308,
        0.0,
        -0.01306808,
        -0.002120072,
        0.2105379,
        0.0,
        0.05637629,
        0.000275494,
        0.1639577,
        1.0
      ],
      "name": "prim0.002"
    },
    {
      "mesh": 1,
      "name": "Material1-material-material"
    },
    {
      "children": [
        7
      ],
      "matrix": [
        -0.001025578,
        0.2101426,
        0.002052434,
        0.0,
        -0.4054399,
        -0.001732746,
        -0.02518308,
        0.0,
        -0.01306808,
        -0.002120072,
        0.2105379,
        0.0,
        0.05637629,
        0.000275494,
        0.1639577,
        1.0
      ],
      "name": "prim0.001"
    },
    {
      "mesh": 2,
      "name": "Material0-material-material"
    },
    {
      "children": [
        9
      ],
      "matrix": [
        -0.001025578,
        0.2101426,
        0.002052434,
        0.0,
        -0.4054399,
        -0.001732746,
        -0.02518308,
        0.0,
        -0.01306808,
        -0.002120072,
        0.2105379,
        0.0,
        0.05637629,
        0.000275494,
        0.1639577,
        1.0
      ],
      "name": "prim0"
    },
    {
      "mesh": 3,
      "name": "Material4-material-material"
    }
  ],
  "samplers": [
    {
      "magFilter": 9729,
      "minFilter": 9987,
      "wrapS": 10497,
      "wrapT": 10497
    }
  ],
  "scene": 0,
  "scenes": [
    {
      "name": "Sketchfab_Scene",
      "nodes": [
        0
      ]
    }
  ],
  "textures": [
    {
      "sampler": 0,
      "source": 0
    },
    {
      "sampler": 0,
      "source": 1
    },
    {
      "sampler": 0,
      "source": 2
    },
    {
      "sampler": 0,
      "source": 3
    }
  ]
}
